<mxfile host="Electron" modified="2024-07-30T19:49:12.221Z" agent="Mozilla/5.0 (Windows NT 10.0; Win64; x64) AppleWebKit/537.36 (KHTML, like Gecko) draw.io/22.1.16 Chrome/120.0.6099.109 Electron/28.1.0 Safari/537.36" etag="rKZpJ7L2XwfgaUiqkXSz" version="22.1.16" type="device">
  <diagram name="Page-1" id="9Al4c9m5QTM34NQ5YePz">
    <mxGraphModel dx="1418" dy="940" grid="1" gridSize="10" guides="1" tooltips="1" connect="1" arrows="1" fold="1" page="1" pageScale="1" pageWidth="800" pageHeight="240" math="0" shadow="0">
      <root>
        <mxCell id="0" />
        <mxCell id="1" parent="0" />
        <mxCell id="qmGR9ZUq5TNTbS_9b9wO-1" value="Je m&#39;amusais à regarder les carafes que les gamins mettaient dans la Vivonne pour prendre les petits poissons, et qui, remplies par la ri-&lt;br&gt;vière, où elles sont à leur tour encloses, à la fois &quot;contenant&quot; aux &lt;br&gt;flancs transparents comme une eau durcie, et &quot;contenu&quot; plongé dans un &lt;br&gt;plus grand contenant de cristal liquide et courant, évoquaient l&#39;image &lt;br&gt;de la fraîcheur d&#39;une façon plus délicieuse et plus irritante qu&#39;elles &lt;br&gt;n&#39;eussent fait sur une table servie, en ne la montrant qu&#39;en fuite &lt;br&gt;dans cette allitération perpétuelle entre l&#39;eau sans consistance où &lt;br&gt;les mains ne pouvaient la capter et le verre sans fluidité où le &lt;br&gt;palais ne pourrait en jouir.&amp;nbsp;&lt;br&gt;&lt;br&gt;&lt;span style=&quot;white-space: pre;&quot;&gt;&#x9;&lt;/span&gt;&lt;span style=&quot;white-space: pre;&quot;&gt;&#x9;&lt;/span&gt;&lt;span style=&quot;white-space: pre;&quot;&gt;&#x9;&lt;/span&gt;&lt;span style=&quot;white-space: pre;&quot;&gt;&#x9;&lt;/span&gt;&lt;span style=&quot;white-space: pre;&quot;&gt;&#x9;&lt;/span&gt;- Marcel Proust" style="text;strokeColor=none;align=left;fillColor=none;html=1;verticalAlign=top;whiteSpace=wrap;rounded=0;fontFamily=Lucida Console;" parent="1" vertex="1">
          <mxGeometry x="109.11" y="43.12" width="510" height="190" as="geometry" />
        </mxCell>
        <mxCell id="qmGR9ZUq5TNTbS_9b9wO-2" value="" style="shape=stencil(lVfLbhsxDPwaXwlJlCjqnKb/ESBObdS1A8fp4+/LxVbOimtPkZu9y1mK5HBIbfjhbff0ut2k8HY5n75vf+2fL7sNf9mktD/utuf9xX5t+HHDDy+n8/bb+fR+fJ7/vz5NltOvH6ef0xd+z7hENU+gFP78e6Ck85Ovs/1hf1zYC3Ec7GOjrPftY6IcBkCjGoF9pZoGe6EGzjMFMH6/UKnAvlIav5+p8H17jqTR2TcQLyul6OJVYJ9Tf31NKFMpAGAJ4hFQe4pvAkqiMpY4KkVwpGLfaysAqJkkau5IFpUAgFIZPQgF4KBm0tE+UAAh10ZNRlYTg4g1U2Z3HgbnUeuRkXQxUAYBt9zzcQWUXpXbAOkkWNQgAZ42peAauVBAR2oUx5xygUEbQMcjGRVbgoA2UlsipLYBXNBW+Npg0DI2mwol5KH219fuzL2dbgMKycgMOySjwjG14AEFxZAojdQwnxkoWAukdQy6EgMP2jygShfBewB2hWOKGJBH8mV7gupg/TvWgYUEsTVSdPQ2yUBZSiSuRbUr+b0WTU6IrfaI3tI16AqQ3iH3yFdGD5MsoaDVd5xNowJ0zKgmY09nhjITQ/BBFJu3iK42vl2PBiooTUrN0TX1EX8vTW4lsVoyUHsrhFMy85kQN3JfWT7kGw+UzyN0NUQngqGZYi3m8tTgEK3VK76NMZSnGv1U1EIVjWmTCadlkQQktqwU34oZgbwWW6acHitMq+lKkZUHwPCcVzFYSwAPbOLn6qB9xbwNSCs9ti4FlZ5W0HGmWCmR4k87rgMI9GAboduXaoFDyHZONxcNgKRpNXht5UJimbuoLGaWoDp3cV8UQUEA7MeD2aOZmHy8tjggGsW+3i1EDElM8Avi1K0g3kCcvKoKOM9qfgq+NdyS+QjqG7wYZZz/4NvS7jXo+6txbvMf8S36W9J0LwPC8tlr7f/t7cfHHfplfzjMV/Dle3/ntkfzfZ0f/wI=);lineShape=1;fillColor=#ffe6cc;strokeColor=#d79b00;" parent="1" vertex="1">
          <mxGeometry x="540.5224476659783" y="89.90353113421202" width="26.280640444909814" height="3.316279033577952" as="geometry" />
        </mxCell>
        <mxCell id="qmGR9ZUq5TNTbS_9b9wO-3" value="" style="shape=stencil(lVfRchshDPyae9UAAgTPafofmYlT39S1M47TNn8fXW9wLM63dt/OWIuEtFrBwA9v26fXzRDc2+l4+Ln5Mz6ftgN/G0IY99vNcTzp18CPAz+8HI6bH8fD+/55/v36NFlOX78Ov6cd/s64SD5OoOA+5gVfyIV/K99n+924v7D3jrj2gMAAUIizBTCVsg4IQo4NoFAFDjhRtA4Y2kcmDsbekXPr9smTiLGPVATYV8o2fh+ax6uALCTJADQiTusASZSLBUgr41VAYXKdh0IReKiRqvSADDzUTMmGxI4SqEI90+wMSFRRSLVnaozEKKRKxdYhxbayQu0zERoiZ2IPXWSbV5GWh7VTF+uhSGPvdYDuZ8k9lQaQSQvhbJqmxKGQIkXfAwQBApXOQ258vA7wFK1kVEe+AoBSx4ZUHFXgoVSq1oO4loY7Aam0IO8MKZ4rs3boZCvNKoQ30trJmMeV1sJZfmuPFtRBSg3rIVR8aD2iVQFmTA0NoMuSpwC0ctlAqrYeAK71aMBSpjJghUYY51X7pZs/sc28VSnrOiiQIG7kPq+6hb8hx90MdXho/T+ihEaeCx1AiZXYz7mKp9AkplY4tA2RWmpPetulkw6ASiRH2VZCQputa3eBbMmhQVbAP87krYdcW/XXbjOdBw0JjS29LxVLDh33DMdWfyOTDHVgceXToeUAXXlhnykAJoX270XDofngiaVPaQYHdiRdCSKc0o6CjT8VWLKFwkyaBM67sFdWoWm1iIc1/4Bzi/Pq1UqQRrY5c5Z5vSEDxi3qpTtEcN4FH74oex/fbjwxbtvrx9d75mXc7ebn0OX//ftHl+a3Ez9+Ag==);lineShape=1;fillColor=#ffe6cc;strokeColor=#d79b00;" parent="1" vertex="1">
          <mxGeometry x="125.68546826951216" y="105.64725029862211" width="24.04837398633572" height="3.398529596010511" as="geometry" />
        </mxCell>
        <mxCell id="qmGR9ZUq5TNTbS_9b9wO-4" value="" style="shape=stencil(rVfLctswDPwaXzEkwOc5Tf8jM3FqT90447ivvy9UlY4ISpt2pjdZxookdrEAd3L3enh42e/YvV4v58/778fH62EnH3bMx+fD/nK86tNO7ndy93S+7D9dzl+fH+ffLw9T5PT05fxt+sKPGRcouAnE7uf8wlFJv198nMNPx+dFeCHJXXhp+NVwz1RrF+8jlQoAmaJ0AGYqcRsw/e17QKTEAJAph35LlXLZBoieIfYApgy2JIlqMUmqID544j5JGeYoJArJxCfZjo9sv1+oBBCvJA8HToDlFIgNIFHKAFCJuSfNNd5XAVmsTJX3CljOlcKgowq2VIRKtoA/yloHDKWggARornE4NFNEgNRkdgMEikCptZDvVxBHAa1QyfdKlUoRSEMBpU9rdJAH7xy5nrkkLXFbS6Q+r1kLGhChpzbMldQEvA7QcunroYZWUVtEGH1PiQMFod/LzgIyOrQQ9y6mawaQ1+qp9kSUSgJMozrrxFOJoLRqRRriMqzRERBj4/4vtxSEPFphOLQoABE3pJUTXmEgTmsUNYdRGixYS4P41I2hlgZ5a39hRNxQQNowUP9ZqdGo+kZiGmwge0rYN4zRqN86pO/ByiqTR6cezFIzXRFzgx0v8vCfEGpE9hSaOXDs4tvssgCgaSbnwTi0t4JjZ22D/fhTC3TLVAbzCzCxSex4ooWO5qWYm3YWBl4B19Fb+ama4jsTk2kR2nrBCjqS2TmXKQCBS2zTxQKQ0FTpKPVZKjqYorlVzdSklZse1wGOOFgAahE6mmczJ0aKqLnr4GoGUU0DGhRbI7+1lNj2uH4E62QxtS2ub8haZQwk6HpC3sQ7ErAf18bgm7PGVuAb8dzHi94EQHMYfFjvHgz2P8SrSBhUmrNm4QssA2f50osAmt28dfncXmzR1etNmp421JCHqyrYvLTh+i0cefU/XoTfDdeHtzv30/F0mq/sy//tHV1fzfd7uf8F);lineShape=1;fillColor=#ffe6cc;strokeColor=#d79b00;" parent="1" vertex="1">
          <mxGeometry x="218.81612888290636" y="105.67628102378069" width="28.488747599273147" height="3.5218469399537105" as="geometry" />
        </mxCell>
        <mxCell id="qmGR9ZUq5TNTbS_9b9wO-5" value="" style="shape=stencil(nVpJchtHEHwNrh29L2dZ/ociRJkM06SComzr98o2okczlWAC9A0EKwfdtWZVzSl9+Hb/6evdKfpvry/Pf9798/D59f6UfjvF+PB0f/fy8IpPp/TxlD58eX65++Pl+fvT5/PfXz9Nyfnpr+e/5xP+PeO8G3GCov9x/qK7VP/74vez+OPD0048Oj+MuC9viydX2kG8uhzeFi8upIM4vohvi1fXjuLZBXEY3OwonlzKb4sP1/pBPLqS3hYPwUV/kA+ui8eH6KqVj0o+uXE8vne1CfniUjTysQv56ro38l49vy/t7eS98BzvQjDySv1Qx+hGXukT1uz1HfqEbxnvCa4IZ4vN1eP5oxtCP/CffHx+dUNEVgrL17fzbB51GRBdMwCYfAhAXgbdAG3p+DKguFgJIHSaqiveAopQUmp0h+aCAgznDQB+Ky6dvcuVAMIOGX4XCCDSSk4rp+0AQ2S5nMlTr9yhuki/0ISv5mbzLgBV+FKGWhMBxKULkg/ZYYgjlWjTBSytvLVkMlx3TR2puHJMGAEhqI5E9WPmKAVoK+I3QFjueBkwrOEAaMK9q181ZgOgTAhvrSgy5heSi0JLFVmrWICq+DWvtL7/BVWVC2kpLkVfBiAJVAvw6kjDlWLVWkReavh3fRcAWk8W0ERMt0S+FGQ8NCQB0pJSayurfOwASai1taXEHSALtbZO3go1iBBtwyVvAcrSPVgKNo8kKlCHq5GWgrBDz24Ma4csIq5Xm72RBIo6ErzV1DgwReFLvbthAF0yh+GJCXRp6YErHuNh1mmhpRGt8wGg0szIyzf32VsBygUm4NUd6jrAvgIpQLf8HADFl8ZYzGKn1qwB5XhpNBiqAgHQjs4HylVEAAFgYjprJhC8t9kYJSMpZxqWziBVVeUbYyW6rcUDDVSGGDaCRpadAAD+SAXGkGUUpq4EkIbolrjCvYK6Q7PNFaJWdQMA1KOpW5OUbBAlq1sFuBFQwurobjxS6jL18aVnjyNSH6v1So/IhkOMZh1BnlhiUEci55tl9F3unbxsgjiAcpRc+kKMgpqq1pXTABiONDUlGlTWqgEmlc2aofI3JUt4S1d65XTs9UDgfyCoRsx7Kf+jKvTrXjfWOZxSmo4qKQCKWXKtnlGlagSxgWkJxWiIbwCgEjgzGihaOQdzJihauR+zMihacibifbOmCC0xsxxJ5mPmrgCobMnsGABVIph/zyOppoMYPgBdpCbuIQAYirBTlzIdXgGoDwIgKwB1WgDIBpZ6uQlQLTJ1iwAEoVbuR6elhVq540WUK7VyTz3TgmrCqWsf2yNunAtM5xOX5snDNJwC0GwDMR3UfIamJ8gaXqiV5zMANAWgCRASmWIPPGOa2VuEKE+xUB/UkJznZGPz3xsncQAo+s2zvklx1JFomjg0eeB55by0Gj/SRHT+gro0zVyvAHiqOwFCSzw3HkO2l6mutLWv02pYXtb2YAfw6kiJAqhK50vxQkx7NV33Ns2g1Cstxc2ZN0BaS57LAHir6f2uLHVoiYIyqcgJb2lQiINaONIaqOmI4z3TvIMA8CILADWZ5k3ZBAhL8yqu60Ez7/pwacVmeJk41aouTdtKGE6plbahoDdqjULL1kmHVIUjR6pyfUerYrCnqBZHNg+DC6m2jxbdLcp1Je3RIa8SkrecG8wpiEjzNn9VaFic36/MsBs3qBmLX1G49axdVsItpnbTCVWmqCdG3dL6MfLI4GrgSOeBB6oRKN33ymCZ9IksoOZuZC+EqCof5A+6Jr/ztY2r4vjw6w2RLw+Pj+cXTPb/t2+U4Kvz2yjp408=);lineShape=1;fillColor=#ffe6cc;strokeColor=#d79b00;" parent="1" vertex="1">
          <mxGeometry x="283.95872130892303" y="119.12300202185577" width="109.06315930252484" height="3.1911981806619485" as="geometry" />
        </mxCell>
        <mxCell id="qmGR9ZUq5TNTbS_9b9wO-6" value="" style="shape=stencil(lVnZUhsxEPwav07pPp5J8h9UYYIrBFOGXH+fVlxarNFuO34zy/RKc/fM7vzd29P9637nzNv76fht/+vw8P608592zh1envanwzt+7fznnb97PJ72X0/HHy8P579f75tk+/X9+LO94fcZl8XZBnLmz/mBEWP+PfhyFn8+vFyIuyCpKHlbtuV9lOyVvCPvD0l81vJpWz4myUHJB7stnyDvlHwi789R4vh+K8Zvy5eq7+OkEPkaxI/2CRIykU+SxvfDYIHIZ4mjf4uESOXzaH9rJBOHNYAykBdLLNpulEZAlMKvFMwIKBL5leyoA5zm+QlmNBK8YJlVk5RRB7ihcrf5MW1clcriInard4D3NPAAMGNg+8R1QOSNSvvan6wDvMRRh+D6k3WAkxpHALRifnDdTQugSKkEYKWMOkQrlSlttVlj6AVh60p2NGvMPLydLnix8mj1EsZYSpabNYgbr5TwCmalxeoLIHGzoikoAMoaB9Qx4zJCg5m16LKHQutY8CHlxyvlIpYDlKcLKjcza+mFegEEMSynq7ix8hWYlZxgzdJbF0SVxBKiih0BCC/WPuvUPj/SfL1fAVBHwPJkqyGm0RGt3BJACt3sF4BKroQUjmN8N+eTpPZWxwbsxpoueqBS+sI164jYk/7iCFZo0PZt0QDmalt1423OJ+GHJqhPWHJkHZB1/YYjWOPFCSZoAGsp0CFMwcRqH/pyMRpwhX4q+obilkjOgd/WoAGRhCuCyU4nZBJM6Mv6hEQLTevLk9KJFEufp6RGgSahAUByGlCZ0ihcU8oxs4LWmykfHAO4KakrNSv4UZjygVEsMDA3nVBZaPjJ00sOrgPMFN6V8kokULLarOwEpGjKGmCI4+xE1+sSLFtXqlPwMX4PpRWJA8ASpWFW1XhbAhHGBECqtwAwIyo+0ygRUTqWqWr4buj1nlX7BS76LoulXPsUdtmoieNARhTFapMjOaEYPWeVTMsMAPEmPgOA6uxXGBMAqnpf4WTtfQoQe9JuWmlUOvORAwA11GRDE6gpreZp9Dg24Js+hl2wb1Yq8xRL4PeZdFEAVKnEBJGIWVvwKUCmZl0BBJoPAKRRB5A0xrBgJbVWwiTHJohidNUIkfIleNqOjsM0GnhohJH+YN5lIwcAqimiTdLdj9NXQtdjJLFM8y66HmNkAKgOdGXv0E5Q6yi+2Wg63LQ7gZXqaKW2neFmVQNy2/+Qct8cN22Y2BDUqoZaGC2VarNUqjLTqcF6OoAuqdijtRsjkFpTeHqfGDVv8DS021qlKnnKD6OOO09r3rz09X3ZtG4fnfzcX1EzPU8JhtfG55dxetZz1PaIHa/EWTSDEjolzoa2aQFgaVVcEWfL7ekyfFc9qWo6EdswpFrDmv7g/9zEPxREXZ2hOwmCGz9bXBXHj48vJI+H5+fzB5bL/+svKnh0/hrjP/8F);lineShape=1;fillColor=#ffe6cc;strokeColor=#d79b00;" parent="1" vertex="1">
          <mxGeometry x="617.7317202617977" y="123.44903603572595" width="13.165845027946878" height="59.818344097367635" as="geometry" />
        </mxCell>
        <mxCell id="qmGR9ZUq5TNTbS_9b9wO-7" value="" style="shape=stencil(jVhJchsxDHyNriiS4Iaz4/zDVZZjVRzLJTvb7wNFwVjEcDq+STPsIZYG0OSOb14f7172uxRe307Hr/ufh/u3xx1/2qV0eH7cnw5v+mvHtzu+eTie9l9Ox+/P95f/L3fnledf344/zl/4dcH1QCWeUSn8vjwRoRD+Pvl8ATwdnq8ALdnrBVCJ6zagJmplBDCVvg0oTF1GQCDJ24BcqfUB0DsV4EMOlEaTeqXYtgHMlMcodSZJ24BUqY4+9EgJATQPeQC0Tly2ATH7KLVsXs0BwWJigCrUgUmN0hjVWiiCNBRKPK5fuLWxPrdhfSkkAh0I4wYlUgdEip3SGKLcqQJecKA48iIXuAN3kjoCFvJuUnUkknKxMQAIyei07hlQVFcFzYUYA+rIPNYSBz4o4B+TDZA0DCBK56iPJmnuGypoJcJI1ZRwQUerRgNEoYIKWvM67hArFVA9Wg11ZGtkSmCHNfmWTM43oOK4Sh3YE4zIS9KMiRvLXdNOMGOBenXL0Uxg48sSG9goKuXx64EyKuPg6RMgP6O2qdV6UABKlSxuPWqk6q5rjFrCwB71NzquQW6eqVZc9BH5dX0b48nm0JY9eSyWTBmkSz/nxmvB8Qk+/gXOGc1XG+Nf7QPz9XE1mCgA/jQKxZmDmg/7QVywNd7ZbNZtFaJrtrA5B5+qRIxUBKXRmGi65WMTO1iTmy4X00jvyyOqW/Y9KsAuoh0zrL6PeJnWdY505dld36YSqpPZejTmoq/DalSaR1/L2g2tAEdKjVanVzOog4iqwHOKKTYqYEyohHQA9ZnB1GrVlPkC0LkFnFZV2x2gm/6YA4TSSp5EZJKsSqzAPLTmtQCLFcYcwD5KqvoCGniZmuu4ej5AR6BsR6oFIMRIMWXrC1faGHUKjUlz6puNvnNA8s2iVBPwc4CKcwcQqFH0kNVHHzRuCQGa1x2127Frq0IdQE+zFeygQjSP1Gj4jKLa2AlRJXwDUSrdtMByUEw2r+Zc0nHkTpYZyglla1+djiPoGnpS5RGg528U1i5eoOkJvwLySbeBfXWHgDIt4umtAMRWBcgYVmlw0MawksiKQEc53cLdCahbSEfpa1dB+kRAqtXH4gBiqZkD8soksc4zB6wvcwTea2iqnSC5CtwcUX3DP28BwqR0ziubkGDTgnG3ObJYOQesbkL+c+f1gUsy/fF+xfZweHq63NBdv/dXcvrocp3Ht38A);lineShape=1;fillColor=#ffe6cc;strokeColor=#d79b00;" parent="1" vertex="1">
          <mxGeometry x="100.00300393411702" y="29.008221223058623" width="9.399001670639336" height="42.695400291684436" as="geometry" />
        </mxCell>
        <mxCell id="qmGR9ZUq5TNTbS_9b9wO-8" value="" style="shape=stencil(lVjLctswDPwaXzEkwRfOafofmYnTeJrGGcfp4+8L1UNZBKWNe5NlrAiAiwXIHd+9Pz+87XfBvZ9Px+/7X4fH8/OOv+xCOLw+70+Hsz7t+H7Hd0/H0/7b6fjx+nj5/fYwWU5PP44/py/8vuASlTKBgvtzeSGBavr35uvF/uXwurD3iThZgPA2IASKPKyQtwHsSYIFZACIYQXAdRuQmER6gKcYtgE5UfYdoApV2QaURD72gEI5bgOqax7PgPkTW4Dcp3V6A4LWv12/QokUPYhBiPsYciFGQVcqPTWyowBcUkDKHSBFYgddcv1ORyGPAcX1gEipwCxFs4K+QQBPvg+aM0VQQApI/QrsIL1roNADQqYEglaA9DsdcD1UtiLgCwkKWgH9Cj5QQlxS9psSpQJEI8sgS5SBQ6lSdcZeQPXEQqHfNa8FCAIIhXxfbl43HngUYnN4sYKATZh0Mg4uIWGd6/0aM6o2L435swCQIKUXyzslNv6+8SeRw/7XXoUZckITVPotCNhel/fGHimqpiOasmlqs24v1n+tMsCIqa/ZeD3qg0yp56iKI/CHZzm/5r8ASk/2vT/KcSDvPKhEbV1x3T40+l75WZH/roW3KIAMHLryd1mTmBGxDACgpNMODTWZkEuegtUhpFtaMzWbnKJBZKpJ02KhqKi9EZUEW4fWpOFQxBnVEun9Z1zzcehlFFA+M+Vk7B3y/z/tY24iPm8wecDpVKj0NaN8wH3MzFAO+jONgYM9mg2qjde38XzVXlKj73V/UYmJDlxm2icG/ng3xzc7FNvcubWCmQGVs4hCUu1Ip5yLwCcpltMaRAKNQLIdVjhRAFWsWbWdTOCUKZGkDzryZwDX80InmIyyxLbQUmhbuQ4YDlEpwxlQV/B9WjPD/qoAMfOHa+q0FXQ2DarADjsB+hiq9jhUbvOUuDgIoixpfZqeLPOUsS4AA1uVjminNeu24gRKUpzZvwAI6uPD+XpRtbce4aXN27deEuB5f7yF0AVQ0Pa0LPNBbz1mcsP30dlXU9RzW1UHXXK44UKhwoPsIPMTK4CGDaqqGlUAT0f71CK60Z8EB6Mx3oj7wnBDg2f9cb+4DT438iE0hb2Rb/jW63N7fbhesT0dXl4uN3TL/+2VnL66XOfx/V8=);lineShape=1;fillColor=#ffe6cc;strokeColor=#d79b00;" parent="1" vertex="1">
          <mxGeometry x="610.263745035035" y="77.93007573355305" width="17.151055620058678" height="28.6707118359852" as="geometry" />
        </mxCell>
        <mxCell id="qmGR9ZUq5TNTbS_9b9wO-9" value="" style="shape=stencil(lVjZUtxADPyafVXNfTyT5D+oYglbISy1kOvv085mjCXbnfBmFmlGR0tqzSHevDzcPh8Pwb28Xs5fjj9Od68Ph/jhEMLp6eF4Ob3i6xA/HuLN/fly/Hw5f3u6u/79fDtJTl9fz9+nE35e9byX5iet4H5df+lZmvvzy6erwuPpaaHQpRct7yTHffkqJSj5FqQS+Sw9K/kKe/K+fJKk5UuTSuyP4pKWd1LLvryX0pV8DsPCTXknRccnpX/IRy0fq3gq7428k0bi6cQ5JY+INeKvk6Dz5ZuUtC8fpFUtPyNqBz9Jn5+lEPN9H9mfz5dMjo9+oHHIzwHYhk8Y2X+TL+R8ZN9r+wEoYj/QlbU8CoKkt9Rx3OxvlkgUqpfadIK9BOIB6qnqjIUmnYRoUtA3xDJAuGeS1z0FNcAwXaIE7XQGDMkNOUrSJuUsnqU5Wh9y4zdUi4vMo1S6LQR4lcgNzY28LjrXX6+2FWCSDmuNI9DbpVZtLTRPwde7RKMQx53b1elW7aUVcYFekXRcW6P4hhMGrhg4iSnMSJgVAsVGRwXpkdDjKPLtRDRbo1BITCFJrNYkNhSQJ29M8iMM2yWHJr2KEut7tdqSA7zYHKnFDv6WJXV6QzfQiLwxgVpopxGGQEYPmETTRY0jKqugIkmbhLh14gOC6ONKgYEvWroAkwpJXC+DrSycdqRt9GYHIsLQidOouK7bBhLHwgoFU3GARmZRapaDNRzBFNAjdOIAbzZ1p3IxLDVQFgMDgrkhjtxvK2TJxSp44gOibks00LACCFFDA+hi3fjdCgU+rOohE4VpyL2PbFeb6RooFYirsGLIsUyDDprJXsDwSVhBEIOGRuaECTdEXXGpDc677UO0JQo600hNg2w4nbjkx1awnQdn0TotAcQksNCowTdtATxxJg/grZncMFlseH2m8yGuSJ9PtICwOSTDdDGB2KaBaWCIK19loGC5uqO7Lbh/X+XBMSytFACNRKIU5j43o3VmH3tRymb/7HRhmvJqFtxKN6Zpgza0MklmUUIBmYHieabL2CAXnI9GqY11YdGMaZSarWmwQEZ/sIV1w5eKBJZpFKQZKHXEbS9K9qGkUZI45cH40ClfmqDRrELlaDXgW/D37ebarEafSdq2AlK9solxBzQJQ/o6Z1g+DnAuFBzpxj6M+bHIHHV660mM0Zn/eEPDx9sL3P3p8fH6gLf8v32xw0/X17748Tc=);lineShape=1;fillColor=#ffe6cc;strokeColor=#d79b00;" parent="1" vertex="1">
          <mxGeometry x="105.95157243569427" y="6.004269961923224" width="12.234977624421195" height="19.41780285871268" as="geometry" />
        </mxCell>
        <mxCell id="qmGR9ZUq5TNTbS_9b9wO-10" value="" style="shape=stencil(lZbdchshDIWfZm/PgCRAXKfpe2QmTr1T1844Tn/evnJ3dmOwrXTvWFafkA4SMPDD2/bpdTNQeDsdD983v8bn03bgLwPRuN9ujuPJRgM/Dvzwcjhuvh0P7/vn6fv16Wx5Hv04/Dx7+D1xqSLrmaLwZ5qpKOnfxNfJfjfuL+yLoKbGnhSJ7wMxBITQEEpguU/UitCGpAXZWaLKHPKSA0HqfcD8SWmBDCEn64JaW8CCdIBcwLEBLnS4SaSMJP0SVO4DkqHcJ6FO1lwRu6wZ0dGVBdwCqvPMbYBQ2xzUVogOkBDaHM5KO4AESKtrYbAjqyzVOQPZClydfTCAWqCgOCuYP849QM4+lIraNkS2NZ2QtF6pFCHZaYgE7VRKyE4OVmpd0hqQnBzqIuICJLf4rDZT16NhPkluAwGxO5gSyAE0grt+sGr1mtoC6IAKdWTN1sG5B7zSEPPX5VCgTg5i+9qFJEh+A+XYyxqcw5W5ryUV/9RYC8SlEGbADh6vWiNKa0/Btb+6T2KeN/I/7dntz6t4/Btxqcqlmz+5D0FtOAx1asiS49a/xef4N3fctrKp6RVEmN192Hv3FCuirPAvCZFWxJ8iKK/Qx+5Niiv0X/vg+dzeBh+vq5dxt5seZ5f/+9eYTU0vOX78Cw==);lineShape=1;fillColor=#ffe6cc;strokeColor=#d79b00;" parent="1" vertex="1">
          <mxGeometry x="120.5928979262553" y="16.02452801304616" width="3.0769703412813345" height="6.305817790733856" as="geometry" />
        </mxCell>
        <mxCell id="qmGR9ZUq5TNTbS_9b9wO-11" value="" style="shape=stencil(fZbLUsMwDEW/JluNbdmWvObxH52h0AylZUp5/T0yIW5lEu0SJyeypHsVD3jzttu8bofg3s6n4/P2c3w47wa8HUIYD7vtaTzL1YB3A948Hk/bp9Px/fAw3b9u6pv16uX4Ub/wNXHMgKFSwX1PK+gh5N+V+wnYj4croCQoUQHRA1tAAcoKSBEwmkD0CsgEWAwgQtEAFchpHeAMpHPgAhzWAUo9UDKwESEjOFaAdw6cWyeS64nCc6UXAWRwRQMIxOtAkFbrCJzAGZ0LHoruHEkEIwdfIHWdc8DWlkRrpMVEZtKBwGkAMwSjEfIYnQLqJ4xW1w3oKtVNGoCk2KlPyhCNstYihj5CMSLUNnVbklYaSVchaGlUsZABcG/qKkcjhys1t1ajHaIZpompmWo562bJJtdsAhfTN0O0wbDcOYKoc7iMnmWPyuDKPUBGmepo7Dwq4xMNuYrWNFAHtLElATp9Xyb6muWwiyBqMbbkA7C2HGUoxhQQQ6JWBs8rywF6YSQ2DfdPeWJZy28O6N/ISFbTwOv9S0be+sHNI675P5tDzxPkbtKb9akDq3Pz/IFlSRAkbWY3LyznyxBT9775pyrgdUHDPJ/+3peLy3njcdzvp+PK9fP+fCJL09kG734A);lineShape=1;fillColor=#ffe6cc;strokeColor=#d79b00;" parent="1" vertex="1">
          <mxGeometry x="119.9479168884702" y="10.24494214840217" width="2.2533452845175685" height="2.2520564526944975" as="geometry" />
        </mxCell>
        <mxCell id="qmGR9ZUq5TNTbS_9b9wO-12" value="" style="shape=stencil(rVfLbttADPwaXYldcp/nNP2PAHFqo64dOE7b/H3oqnJMSpq2QG+yzNklOeSQGuTuZfvwvBk4vJxPx6+bH7vH83aQTwPz7rDdnHZnfRrkfpC7p+Np8+V0fD08jr+fHy6Wl6dvx++XE36OOI5UwwXF4W18EyOl8uvN5xGw3x1uABIodANgppLXASlQFAOQTIIAjboFpEIc1gG5Tg5MAH2TAaAkqtUASqcaASBQT/YGpizwBrYuSaGEbujExfNQwA1VXbI81OmEZftE0YYg+PxGYnMUKfK6fRNie74WCuCgtbm9tHX7ztRsRpkY+NMLZZsfrToQb+8ULAEd+hPDNb5rgoQ6YEBvELaARrkCQF1otZoAQCjbnHKhAIJuGrQDNIqItUShekBFZdR92WmdNtD9ddabSlxGha16xT5Lv/O21mrJuhTVJdybwQqSMh0BcdqbrvsblMjK1K19wkkt1JxYwABapNxcrzGyn/VOgBntkaQ7fxKIt2dK1cWL8tmbP7/+qdN8fhiqrwKqY7hOcvCfAEqxC1mdxK0plrNSpqwtA676di26QAUopCp8s32g+lEBzbn4wXwjgsujnP1kbhUCJFGyV2h7B1BKl6lnb9BZjXReNbdb2dZ9g0HUUfcXW0y6v6BJG/1g1knbgUfKkhO8CAVvPnfaVFtr9m7sFBLAQaDq7AUuR+xHgm4ugjZIn58+bRrL6uv3EBVrpBV+jJdpdVsmS9liZ4/WojhfHWHyVRZSdu6jYoh9UvKP7KB1/J/3978A6MPH58LTbr8fvzZu//efF/pq/DSR+3c=);lineShape=1;fillColor=#ffe6cc;strokeColor=#d79b00;" parent="1" vertex="1">
          <mxGeometry x="125.10205487887605" y="15.35441656677244" width="8.507279288390107" height="9.170493351299617" as="geometry" />
        </mxCell>
        <mxCell id="qmGR9ZUq5TNTbS_9b9wO-13" value="" style="shape=stencil(lVbZciIxDPyaee2SLR/yc5L9j1SFLFMhkCLs9fer2SlnYwcEfjMeN7q6JU189759fNtMnt5Px8PL5tf8dNpOfD95P++3m+N80tPEDxPfPR+Om+/Hw4/90/r77XF5uZxeDz+Xf/i94gqj8ILy9Ge9cQQn/26+rYDdvP8MCAjSADzDOwOQIC0gEEI0AIIUG0AsIH8Z4IhA1CBEwMEwkcGtT8WD8mWAFEhroUQEI+osoNQC9MYAJAbnFlAQy2VAyPClq9xHHs4i2CGU3oQzTLiM1JJDE+eNvGa4LugAToYBuC5mghjUoD5kySCDrAHJt+8ZwfDfMXJHJAIbVfOp1qgClsKz4ZFDaV3Kqg+D3FHgaASQNUQecUlSDfHGoJX6nXqupFVpljsLdt1UK9IRzyaGylfCCPPE1883UjsJYtcBbPFEjzSoz4TkehNWC1D9dM17aTKGhaW3dx1A25gB8F88svvkaCMefe/AQ6OB4Vq1XZk9EbF9f2W4pZqNG6dnrtF9aBPZkKZzvfi1XNYkzH28XKV6vrwR1PrjkI30c6jm63uyZ1TohW8rIGpnoYH3SeslA/7kgJIG4tUuIWUgn8reMlIvVVNq/bH5cH5bMwK+Yb3Tw//l8Hne7dbd8vP3fpnUq3UR5Ye/);lineShape=1;fillColor=#ffe6cc;strokeColor=#d79b00;" parent="1" vertex="1">
          <mxGeometry x="135.8307175850034" y="15.985864267490793" width="2.2728505442789486" height="9.733299335286054" as="geometry" />
        </mxCell>
        <mxCell id="qmGR9ZUq5TNTbS_9b9wO-14" value="" style="shape=stencil(fZbLUsMwDEW/JluNbdmWvObxH52h0AylZUp5/T0yIW5lEu0SJyeypHsVD3jzttu8bofg3s6n4/P2c3w47wa8HUIYD7vtaTzL1YB3A948Hk/bp9Px/fAw3b9u6pv16uX4Ub/wNXHMgKFSwX1PK+gh5N+V+wnYj4croCQoUQHRA1tAAcoKSBEwmkD0CsgEWAwgQtEAFchpHeAMpHPgAhzWAUo9UDKwESEjOFaAdw6cWyeS64nCc6UXAWRwRQMIxOtAkFbrCJzAGZ0LHoruHEkEIwdfIHWdc8DWlkRrpMVEZtKBwGkAMwSjEfIYnQLqJ4xW1w3oKtVNGoCk2KlPyhCNstYihj5CMSLUNnVbklYaSVchaGlUsZABcG/qKkcjhys1t1ajHaIZpompmWo562bJJtdsAhfTN0O0wbDcOYKoc7iMnmWPyuDKPUBGmepo7Dwq4xMNuYrWNFAHtLElATp9Xyb6muWwiyBqMbbkA7C2HGUoxhQQQ6JWBs8rywF6YSQ2DfdPeWJZy28O6N/ISFbTwOv9S0be+sHNI675P5tDzxPkbtKb9akDq3Pz/IFlSRAkbWY3LyznyxBT9775pyrgdUHDPJ/+3peLy3njcdzvp+PK9fP+fCJL09kG734A);lineShape=1;fillColor=#ffe6cc;strokeColor=#d79b00;" parent="1" vertex="1">
          <mxGeometry x="135.37648831704166" y="10.816370719830726" width="2.2533452845175685" height="2.2520564526944975" as="geometry" />
        </mxCell>
        <mxCell id="qmGR9ZUq5TNTbS_9b9wO-15" value="" style="shape=stencil(lVfLctswDPwaXTEkwOc5Tf8jM3FqT9044zh9/H3BauiKkLQzucm0VgQWiyU4ycP78entMLF7v10v3w+/Ts+34yRfJubT6/FwPd30aZLHSR5eLtfDt+vl4/V5/v321N5sTz8uP9sXfs8478m5hmL3Z16RSin+W/k6A86n1wWAA1W2gJj2ASEQiwW4ug+IlcSEVPrKJiA7CnUEeOKyD0iO/AjQrMSDHBKxAehK2AdI7gHcQ0oUQA6iAYy0BmUJ5BCEUhgAMUOWYqE80qpEV1CHmqmMO+RKGYRUVTl5ABTpn9gDlJHWUnpltgGFQhoAlUkyAESKcQREqkDe1VMYk9Y9I8ihJIpjDi0rwFLxVq0NwEDeydKqIQnYIbOVhiadgbyTBiCWVgdoTcrJCCgqFmACCigraUSUtOucLMQXgDRyID/uoLwxSDprDgYQyAFAi9gAhLwAQLF1UADy1irdVO6A2IneBiSqY0+3rEAdVGpmh8Jd8JsA75w9IFTxGTe196OY9IzBSSTT1IEKoontEdSsClifFoLNDnpmoR7Vwo72veBhT03s7RZITSoF0xHKQ8YdkcwOAr2vAfgzgOStuypxgo72vPLvCHnVU46NmBg6E6s6R6PJmQIAeE16BKTcadjOgZI5Fe8Dzs77xmYC95VtsVpd6OSAjgcf7fTjdXIAAfGaU6gjiXbSwC6mc0gcM8CdkMSODQ6OSsV1BdwZhfFr95t50t8z2vWXcQbQoqASq1/5cYeANaGatLNY7AayN4CWMWedxTwgaT1ENwBWhfFInf/Q2bO+CER8lKg1RPs+o7G+e/piXg3IK2zVYoKc+t5Wi0ZG33ermnG3v533LT9Y16v31S0r/L6JJ+jQhgpm89UbQQZ9vOJTjcsBBa3qFRz8/koPgrusCc5bwOcUugLow/+L7svpfJ7vycv/7cVYl+ZLtTz+BQ==);lineShape=1;fillColor=#ffe6cc;strokeColor=#d79b00;" parent="1" vertex="1">
          <mxGeometry x="140.53147869782117" y="15.138395327928716" width="9.15167139908356" height="10.726826875643317" as="geometry" />
        </mxCell>
        <mxCell id="qmGR9ZUq5TNTbS_9b9wO-16" value="" style="shape=stencil(7VjLctswDPwaXTF8kzin6X9kJk7tqWtnHKePvy9UDVUDsVdRj5neZEprEMAuAHKIdy/bh+fNENzL+XT8uvmxezxvh/hpCGF32G5Ou7M8DfF+iHdPx9Pmy+n4enicfj8/jF+OT9+O38d/+DnhQqFURlRwv6YV7ym7PyufJ8B+d9CAXBVAVmoEgEq+KUBqVDIE1KQApWILjYL2oXlKDAFZW2ilr9wC+KABTLXBKLFTAA7UkIVEnDUgU0ZOB4o6DyxRAonzTDFqAFMIAJCJWVPDOXLIRKCcVyFkB37Nngr5ssbpSJnXRNVTMTHCaXOU9P4XeDFH453ES+R0kkUKXMH+xYAWW07UCqCR61qc1emJPYiot6yQlQbEllKPyFwwhLpA/61SMtohBzghKQpazRKFBoLExbLOS5yBC9y6hzOgQRcuaD87HSkgITAlXWHGmgOYKsQPGhBDJ+91QKRiAAVqTahsfIgNiqfFrpUZIDUHWKjSCPiNBRClOufpwgcPUl0dZW+jlIEeSrNVUvLgQKrH3mToHXuzuGWBdR6ETAH54G3iRrqCPNRMxfBbBIES5+wQIKkHNaCJAe1zowpixK4X6YsNQcHlrvgZEGCREYWaxuALNbQlpmb05nvzugkwii6dWze3ZPTme925DngzAsRMHofVKrp2bt3Km2mHItAA2o8QwwwZIlBGtVsAbQ2gRKrah1TgdJiqrfa5wekwJjsdVmkYaP78INOhzsP/6fDjTYeOginD+NzjbAlbOFh5ijqeCyc332fT9x4N7bC6dPakZISJlU9J/73wA9TfudjOpau3iOtdtk+A8+bhZM5WwVK80SAfbK4WxJXtoXnh+2a5j/cj3nle4a4EL/KKaEr0neZagVPU+NpoBVPtH+45lgDy8Pda5Wm330+3Mpfv7TWMLE1XOPH+Nw==);lineShape=1;fillColor=#ffe6cc;strokeColor=#d79b00;" parent="1" vertex="1">
          <mxGeometry x="153.51141111404434" y="15.413668135944018" width="8.199849043481404" height="8.628828331173802" as="geometry" />
        </mxCell>
        <mxCell id="qmGR9ZUq5TNTbS_9b9wO-17" value="" style="shape=stencil(lVfLjhpBDPyauVpt9/u82fzHSssGFAIrlrz+Pp6MekK7hxK5DQOF2+Uq2z35p4/9y/tuEvdxvZy/7n4eXq/7yX+aRA6n/e5yuOrT5J8n//R2vuy+XM7fT6/L5/eX+Zfz07fzj/kffi04icRhRon7vbwJgXL6++bzAjgeTjcAX8g5C4j5PiAK1doD1jebgJQtwFfyDABMwh1ACgmIEDRCsYAEcvDKie+PlIgLAPDAksYEEYIn30eICQJiIe4ByVMChcuZcp90dsTuPqAIpb4OmSmBOpREpddSVmkgQB2OVCCgaqWlAxRPDCpdndVSUf0ClvRIhtaqNCCWok26JvIRAJiCARSqIEJOFHp5s3NNXtsIpSn3ISpFDxyUmoVXQMYAsZWroZVmG+CahddCVKoB6LtSMKVeW9W9CNJbrrjmqXs5mKSVaUSrsiRGrgINoQarxhCOImBpPkB/pIRZUjGx2AgQEIekPQWkbxVn6gGZHGh9s+VM4Zgi8qiqNfYAVTxykHJiPKo0IEC2tNbYRsY2wNv2rR4V5Lhi66COK0gaYmmdAah9SxsHDwJ0LDvDkoOelmGizM0VJM2RkvFDhIM6UOoLrSMLseqGIVooAOlJO+46pVXbgKJqKeXaTrj9/zwUjQJg1KvZzJ4BN584JID7/Lwp9edhWGGtpzlPJgY7hrqEzeTR6Qm6y81guikBSlnHRjL7Z4FdW3MI/UTXTaigNl8tIAVioIoYh80qtvXv7krc0zRPChBhXLrT2vi3AWJ3hvlIIIIKuQxJFyBtzhve9KBwPOw9uoYjs3Gw4tMRj3Y39rbN60qcUT8aAaGV8tEj6YaLAEPSQa8mKOmBVr0HBOSgoXAhtsvKg9JQANTS/974HgDow78L5tvheFzup7ff2wupvlous/75Dw==);lineShape=1;fillColor=#ffe6cc;strokeColor=#d79b00;" parent="1" vertex="1">
          <mxGeometry x="161.57757350694374" y="14.58477544843549" width="8.937520053541059" height="9.473472513621346" as="geometry" />
        </mxCell>
        <mxCell id="qmGR9ZUq5TNTbS_9b9wO-18" value="" style="shape=stencil(jVZJcuMwDHyNrl0kwAU8J5l/pCrOWBXHTjme7fdDjYoag5bg3GS6QSzdADHww+f++WM3kPu8nE9vu1/jy2U/8ONANB73u/N4qV8DPw388Ho6776fTz+OL/Pvj+cJOX29n35ON/ye7XJBcJMVuT/zScko4d/Jt9ngMB6vDGIEizIQB+e2DTJiVPiQ4A08I5PGO5S0jffwXuE5wPM2fom24SmBvYWPGu8FbBSIEJPGeziroChZ4SN8NtJ14O7+drCOjyDNl01X/Zt8dz8Z5aSAFDRfKBZeer5qRtmoP9eAtAOfTUFUA9EKmmpMRkgFWZeIqwgND1XTXUhVo8kyYARNWqghGSxUjUnnQcyyeoZ0bVY720i6wLHGZ1PWAaJrFAhSrLbsSODUBsFGm/miSZPWGFt4nS/dGxO5kx3fyTfrtk+mhipf+noCW13MSBrv7K4XJNfhozWEGKQFVxVoVH/Cxx5v3J/yzf0CZ8nNI3RjbhlM6wYBQQsuCsjykBr/C2NkTq4iyDqkmpUzSCgFoknI1LLamNU3j01ext+WC9Y8CJuTZXqttQeRFuW6Qezf18Jtmq0bUNsHFoPUemO9FcqNh2I+OZJ6MV0Vbt2CkGPvIhlJ1DWH9Xi5s+Z8YS+qH/+3qtfxcJiXsuv/+y2sHs0bHD/9BQ==);lineShape=1;fillColor=#ffe6cc;strokeColor=#d79b00;" parent="1" vertex="1">
          <mxGeometry x="146.90788544161126" y="8.769227381706852" width="6.423358382224641" height="4.001015883904139" as="geometry" />
        </mxCell>
        <mxCell id="qmGR9ZUq5TNTbS_9b9wO-19" value="" style="shape=stencil(lVfLjtswDPwaXwlJ1IM6b7f/scBmm6Bpssimr78vXUOOKdtT9OY4GonkzJDywE8fx5f3wxDcx/12/Xr4eXq9Hwf+NIRwuhwPt9NdnwZ+Hvjp7Xo7fLldv19ep9/vL+PK8enb9ce4w68Jx5VcGFHB/Z7eJIrl74vP0/rz6bJYH5lSNet9plgBQMhFAwiROOwDEhNbAAcqDAC1PyF6SnEfkCNVb3N2lNw+oMz7zYBKnABAKNsTshCDHCRRtjSUQjnvA6pQKQZQHQlI2jtHzlkEN+63j1hJoyYKCJCodoBCAdS1+p65MS1QV4kkVn0aZAEhKRHeErGowx7X0fVHJMBEVsNIn0QESWRHNVlApgIslFQ7NokaqQCuUyHpAIEStlDqmHPEAnJgCtkARNoW2wB1BFtAIY8slMhZgUtuzGxrw/euVgAD4jTiuArJgSqpXzridAsGPKj8e7k68sjVlcSGpMQFwMOoze6ECFuZhuS7vpEpoRNCaysLeQeg1rGIHaDCkSIqtZWpKzihcIt42QUAIJc2cRY5CAJo1bsqlRbknkWr9YM2Q9QEtgFAGlH/tmXVuglQK0vvaW1tGQF87wctAyJOB3m2xOnsDn4f4HWiWAPF2OS4DWDKFsAJTpTVVAwZ89YG2jwepDG/uV7ta4dDgfZcjdwE+/ZqHEYKYDm3BjonS4IG1SrXRt/OhYGcVaiDJvOx6fexHt0WVAxd+Hgwa7rS748GSJhvXI/1GVCrt8zQ3WwpATGrEpPryp8RW6WVb9Yy7HL/ezP/93p9eHwGvJ3O5+krYvl//9mgr6ZPDn7+Aw==);lineShape=1;fillColor=#ffe6cc;strokeColor=#d79b00;" parent="1" vertex="1">
          <mxGeometry x="636.0196194844883" y="78.88223692044551" width="4.843955692807867" height="14.933685741985366" as="geometry" />
        </mxCell>
        <mxCell id="qmGR9ZUq5TNTbS_9b9wO-20" value="" style="shape=stencil(lVfLbhsxDPwaXwmJkijpnKb/ESBOYzSNA8d9/X1na6xtcb0T5LZec1YacjiiNunu/fnhbbvR8H487L9vf+8ej8+b9GWjunt93h52Rzxt0v0m3T3tD9tvh/3P18fT77eHKXJ6+rH/NX3hzwkXu6hNKA1/T2+qNP3/4usp/mX3ehWPvzUP8VlCXo/PKmmMDxLCenypPl4ltvV46xLiEN+klPX4WiWGIR4ZCGkd0KInnIJEBgDjcYUcpBMK2FJPA6BEKSRHVucUngFNGktq8luyKCmuA1KTOmbVwKoTWWRpY5Yszaxur4A6m99SI1lCTvKYJWsSSaWtSHDKTlKJtKtJ6SMAlSFZ6kHaCGicQ89iYx1aouruVcqY1lZEGaBLdiuAA8lSDMGLCbQo64Vj9CTNKAmtI8Ak8zTpWOreaENgx9ltqc8Cvt2j5tUHAOvRqamLByhpiNrmnJwBVSrhAPWpW6FIYraRpY7q6yqFA8yJqc+Kvw0o0py3Gu+gNqv5DMhz7dfMtTi5Kq005O9cYPoE4TBRLB5gpCEgZr+CcoCJVU+6sAZq0tX3aOAd1x2H/lGLmtOSSmcN1LxXQnzGerr4Y7p/4JVRqjMBWBVrUbTLWIcrq7qNSAvWyAOR66cBOFJ0rBysipEoKtlpA8ZExISD18ZCQEzspMbBG92h1WYjWTF83xAVExbp0cX5gFGgkPi8mGbC3FG3NwSljaaRjQIwf9WRQc5UrPieuhUSdRkMoW6awRhbiDAwf9VxhYQzkVShmC+bFuqUGaYxCiMaPR4wYOUFIJAVdHGuYzJmhcZVwLk9tMI4LKUBADNvVd+gE4B1A6S2ALDpPrZ5ErkizSYyJNFJA58IRBqTvJOvgxHxxUWW8Al2PADgrDWmeVpZ21J0lY50XLoo5+LFs35vA+rC9+iI+Nlb6MfxeLhceZ92Ly+nG/P1//6KjFen63W6/wc=);lineShape=1;fillColor=#ffe6cc;strokeColor=#d79b00;" parent="1" vertex="1">
          <mxGeometry x="637.2376728519345" y="77.25354643892933" width="10.661934124724992" height="14.668593940312608" as="geometry" />
        </mxCell>
        <mxCell id="qmGR9ZUq5TNTbS_9b9wO-21" value="" style="shape=stencil(lVbLctswDPwaXXdIggSJc5r+R2bi1Jq6dsZx+vj7QtVIFVgZndwkCkssgAWEgR7ejk+vhyGFt9v18vXwY3y+HQf6NKQ0no+H63jTp4EeB3p4uVwPX66X9/Pz/P76NFlOT98u36cbfs44EpQyoVL4NZ9kZP5z8Hm2P43njX3JKMnYRwLLfUBliAVQRnQAIkjRAGoDOZQUIGQAjSDVAVSI9dAEmRwAgWySRGNo9wGNUS0l9VmTk6WG2nkQsOOhBqTcA1q5D+CEGCygITmUSkGsfdDieChhyckKCCCn0rmCbdCtIDiUFNDYSkNcD0qpdgAtXHQAjGBjYEF1AExIttLMYEetNSJ3HgqS10CyiHkD8LTUNEu20lyXDtmXt+aky1J0xafKIUtJu7w4QccQECynlhC8KdDQbJo0LPaaWuVq54wkt3La8z2AfUBEsWNjGlVeU1Mvpk0e9tWUFwabJhVvHNdFO5sgkuOhaBDSpyk44shtuW8tBKM5hfgwgArItpBGFZ28prCoc/2lsDs3uB+uehKzwwhkI0hrl+/LG8FWLcoyqHbt/2mGyO79OkbtrI8JxeGf+vtlIbhfMTQrieL+Sdrydc2+nxzdD2x5I8gpVmz9vAtulyn9boPxe4z0c2/vDRaVZ+zU4/77P7pR/d9eH/6uby/j6TRvf9vv/bqnR/OqSI+/AQ==);lineShape=1;fillColor=#ffe6cc;strokeColor=#d79b00;" parent="1" vertex="1">
          <mxGeometry x="648.5517713845555" y="82.2760630705302" width="4.263077907900879" height="6.4485731476962815" as="geometry" />
        </mxCell>
        <mxCell id="qmGR9ZUq5TNTbS_9b9wO-22" value="" style="shape=stencil(lVjZbttADPwavxLcg3s8p+l/BIhTG3XjwHGvvy9VYxWRsqbomy3veHfI4ZCrXXp4Pzy97XeR36+X89f9z+Pz9bBLn3YxHl8P+8vxqp926XGXHl7Ol/2Xy/n76/Pt+9vTtHL69O38Y/qHXzdcEAoyoSL/vj3pmUL4++TzDXA6vi4BkXo0gFao5G1ApxTM+lool+31QtLN+lKptO31kdiul0YMzsPEbNbnQo3R/0cboCTEKEBMUgwg6gYVbBAoNAsQqohxp2op6JPQtwGpkqw41LQNyIlStkHKJCCouQ4NzFkQimAH4UFxTrPAtGWmYMOqumhAR6mQWOFJpQB2mACOtCo7YsAqrB2Q1jxUWzsxQw5KOtsoab0mnAe2ABlqvJ+GRt1SmMvj7vqqWrUMAlVQDC16e2lUBJhFGKqZI8QUQfH0PlQz52AW+xagV5tl3RNQVkBzssAG0NvwqxnQYBK6yswpNZCgIyV/JEkkQKmdqVjSkimDHVqlHD2AQVib/p87UoQcVBkucbnD4mk82sayPJFWNXG2M+RIDXFgSnaH1Ec53QcEnwc1gAKMWKPkrD4lYkS6jmY8AwIlcCTNdHKexNSxlryJBSpYral6DoJKtA1tzoAyxLJVcbX6PHSQuMDrpp6oYhdwiVDnzCARvVJyYwbD5qBjVLNOpgXRUZjCOPGi5CIIU2uUuwckVHIypLOwDdQRtUZr8aQb0rf+vAprBaQbr2oUA2ryDUjlioypFGIrJu25aAedEvJquhJAWoof+LSjoDzIam5QaaCOMgHskUqEPqPDV7fGVLF9y6qA1KoSiJJSFCvvhicTNQk3yug9IIAjTVOuuwgk6GQfU/NC3ggQ6hj8F32XgfXpLFJcHhi6cdQDWGlUHvq9D1C/d3kIMA86T3VLWm0B2cx0H7M7aMvo+LYRbQvSlsGIQ/PXE/VCeKRVHrTHoOuJXqjE1rT2mIA4iB+LtQFEJD5Va/AANKnrHOwmrEVTuq++7mtUt0AX6dB8a1fWDSQiFK8+7WKoU+vlorm4Cszc/789+DdAP3y8rHg5nk63dx3L3/3LDX10ezGSHv8A);lineShape=1;fillColor=#ffe6cc;strokeColor=#d79b00;" parent="1" vertex="1">
          <mxGeometry x="653.3071964653662" y="75.71314816693098" width="13.99866732054865" height="11.992716019507887" as="geometry" />
        </mxCell>
        <mxCell id="qmGR9ZUq5TNTbS_9b9wO-23" value="" style="shape=stencil(lVfLctswDPwaXzEkQRLkOU3/IzNxak/dOOO4r78vVA1VAbJ3mpuieEUusLsEd/zwfnh62+9SeL9ezl/3P4/P18OOP+1SOr4e9pfjVZ92/Ljjh5fzZf/lcv7++jz//fY0/XJ6+nb+MX3h14xjISkTKoXf85tSKde/bz7PgNPxdQXIhVo0gNyp9vuAItS7BQSq5T6gdkrVADhSY7BCpZANIOmbBjgwRcshNWpyH8CZSrJb6hQBB1aKdksljTLcBjDVYAA1U0McxPehVmqgcTUSNwtokEMTSnYFSeMTNwFd22Q5SCYGjetlSG0BCGW0woZ0i1TQCo2KFV9TaSCA+oENoIfR+3sc2Eqjq1gyrFK1HHRN5AfdsTNQ75C01qSzByDxia5gpaF166APKoRqU6PXod97nmbHQT2IAELFrtDUoig1hNhJQ8WHVmgkTt5aJdBpiV5LWrcIHCfFV0mYMmpcGOpfOS5EAChU6gaAxBeIq98SNJAWUTxpRn4Qis5xYaTtXYtuGlcwINmYaZ0C6INqM23El1DMaFZb0voJQY1rPr3VcQF5WuPeWjSGQAHIVTZJpktkcGZ9GJA3aazNb2BLqY90XwCaC2CFmChafWurMzpGR18X8UUYAksJV8MMmk2Wry2jSaQE7COD3mrQaMAMUbw/I49cu004+gTI8EDUKaBbxnpaodBT4Rf3e6i6Ts2KKI2z5bZz2B/QMY4p4naFwqZnqUDV6YHrcpv1sAL21znGDT4ZDz6aoa5IRSMHsNbRys2TtVAEOirJC0nwHFPC8Mkq6NFhNQnDjiUa9IKUVAbF1fAGh+g0xpz1CsBsedNpwWKa7ibbKoFOc/G5rXOHgD7oXO+0NM0daEzPPpFqgdK4AUhQ3tOW3EVAe484KOmtWkHjPnzl+w+APvy7Yb4cT6f5grr+v7+R6qv5NsuPfwA=);lineShape=1;fillColor=#ffe6cc;strokeColor=#d79b00;" parent="1" vertex="1">
          <mxGeometry x="666.6292030307915" y="70.58690481351914" width="8.96329665030862" height="9.98518458135056" as="geometry" />
        </mxCell>
        <mxCell id="qmGR9ZUq5TNTbS_9b9wO-24" value="" style="shape=stencil(lVfLctswDPwaXzEkQJDgOU3/IzNxak9dO+O4r78vVJWOSck7zU2WuQII7C7IjTy87Z5etxsOb5fz6ev25/75stvIpw3z/rjbnvcXf9rI40YeXk7n7Zfz6fvxef79+jStnJ6+nX5MX/g144pS0gnF4ff8JmaS8PfN5xlw2B9vAJlJag8wiuU+ICVKqQOwUAIRhMn6CP7m3yfWAZm430MSUr0PUKHIPcBI8n1AEWLrAZVqvQ+oYQRopgAAMQQKoUPkQgnkVIVKXyZjCvE+wAJl6QCeZTZYptrXtVZi0AivYig9N963tY7gVpWbEArY5L3OuQcYjODckWHXCtnEtXHnCmBIcLaxrmakAiPkPoIlqqBzvgeNPSBSxlWqPaBUioBMaaHqUijjVouNAAYpaWrUuQIMKkIrSU8mJ3Bg4Ewu0l7VLggDe8jafOgKyE229wB5SMltAJQ1p5bxlUvuTMhdXZF9SjVDLqlS6fvgeigIEEaNuuIMbNr9OyxcwIC7io2N85QQl0Qox3HTAqghC3f1sgqghku0DNSoVEDjXKJxQQ3EVokLtjI0V9E2Zm8kaiBCCpQGxRnUw4cBk0R7QHZ6o8ZpK+LNzMoggh8Vct+HHMmA8ynVvkjKzXdW1y+GqBeBQZ89er+eDW8gjFSNBYqBeSzR9AlEJBsPM0oR6TkvArTpsu4wV8dq6wOcbn70iXVYj+ZtyaOpBhLQYWf9eJ6kADrsk6/26xnOHVvYl7Ser69fHIiVFPTLfSEOo5YUaGbykcHhSQHjPJ/BiWKkBAhhfroeCipw9ntFeWBQalNovWXWMr4CtJ3K1gEfvWT8B8Af3u80L/vDYb4S3f4/3oH81Xx/ksc/);lineShape=1;fillColor=#ffe6cc;strokeColor=#d79b00;" parent="1" vertex="1">
          <mxGeometry x="676.08022336835" y="66.82489584578889" width="7.507352755724891" height="12.258606778524413" as="geometry" />
        </mxCell>
        <mxCell id="qmGR9ZUq5TNTbS_9b9wO-25" value="" style="shape=stencil(fZbLUsMwDEW/JluNbdmWvObxH52h0AylZUp5/T0yIW5lEu0SJyeypHsVD3jzttu8bofg3s6n4/P2c3w47wa8HUIYD7vtaTzL1YB3A948Hk/bp9Px/fAw3b9u6pv16uX4Ub/wNXHMgKFSwX1PK+gh5N+V+wnYj4croCQoUQHRA1tAAcoKSBEwmkD0CsgEWAwgQtEAFchpHeAMpHPgAhzWAUo9UDKwESEjOFaAdw6cWyeS64nCc6UXAWRwRQMIxOtAkFbrCJzAGZ0LHoruHEkEIwdfIHWdc8DWlkRrpMVEZtKBwGkAMwSjEfIYnQLqJ4xW1w3oKtVNGoCk2KlPyhCNstYihj5CMSLUNnVbklYaSVchaGlUsZABcG/qKkcjhys1t1ajHaIZpompmWo562bJJtdsAhfTN0O0wbDcOYKoc7iMnmWPyuDKPUBGmepo7Dwq4xMNuYrWNFAHtLElATp9Xyb6muWwiyBqMbbkA7C2HGUoxhQQQ6JWBs8rywF6YSQ2DfdPeWJZy28O6N/ISFbTwOv9S0be+sHNI675P5tDzxPkbtKb9akDq3Pz/IFlSRAkbWY3LyznyxBT9775pyrgdUHDPJ/+3peLy3njcdzvp+PK9fP+fCJL09kG734A);lineShape=1;fillColor=#ffe6cc;strokeColor=#d79b00;" parent="1" vertex="1">
          <mxGeometry x="646.805059745613" y="74.81637071983084" width="2.253345284517439" height="2.252056452694368" as="geometry" />
        </mxCell>
        <mxCell id="qmGR9ZUq5TNTbS_9b9wO-26" value="" style="shape=stencil(lVjbchoxDP0aXjW25Jue0/Q/MhNSmNKQIaSXv6+2xFssdk8mbwvoYFvn6Ejejdy97h5ethsOr+fT8fv21/7xvNvIlw3z/nm3Pe3P9rSR+43cPR1P22+n49vz4+Xzy8MUOT39OP6c/uH3BccU2wTi8Of9C6GY/n3z9RJ/2D9fxcdAwgMgKgUEyCQyAgpJXgdwpjxuKca+yUWAROIwABpVsIBUCmN8oRzX41OhNm7IUgT+PxfiOMQH0rIeXzKV5OLfN7gYXy2jxcVXwEBLFIPbfwXnVUs3u3wyyL+Wno6ZMCFFAPUbMg0pI9EFT5lxFkGOtFEZORAmUXiI4EhuFABrlqU26jpJ18kyDYWqjoDWlb4M4F5YHZCZGJyhmrBHInKmBvJamfJ4hmzUIKkW0jGtJVGoACC9tGZAg9oosf/cATVRQVuKlMZDV4V2YYA2AlruzCwDUpd/ByhDAzCAjgWq0tdcAziHUfMEQNyU9bFEtcIaLcb0WEBThaAtBUruDEoZZCk3is7nA/YxE2cVv0QDRpZNTMkDIkhTjlSrT5MKAAQqLk3WrIC+DRDdCiZXvEJ2zDE1tEL0TmbOg1zAsuQarobuC2s8pNGYmkIx5dp3fAVAXmliYvGABFqQyVWiP4MALZnPNPVZQjxMJed4EGLkZFbUboVMAa8gDlDgXGJnCE5LredtzcmiW0E792s1quwBsB7KjVoVzjI5eaYNkFCJcuf16tAfVJxrQZZWNDx8GpBuGnVLkAcDlBFQW/eRZUDtR5wBxj2oaZsU6tggiv0Fssroa9pKirEZuyZnVZ7BCuVmJDPjYdzkyth3k0LnK9ZwHKBQQoNx8luykYyBWqt6I7OhDxWQjWQ6diBJfRhfBmRPnA3TqCkawKnVrmgJTffsfcnuV2i8tynRScPuV4qYnrvyXEDYlqyhuZLuPrUqPXd/CPAOOl3I3AkYSk+K76Fx5mX5Dlq6bmYWAhz5LOduDrBrLGq6zTc4S1ICSa3+jmvx6LaR/RgtAY5KqWvmOh5wIJSa3w/qJNzv/Ffx6NIdffO0jCmID95cLB4RFm7ee+ABeukCigo/+GnYGEH8Bu91xkhGgvM1M13qkaI/+Z7n43h7+P9S6Wl/OFzeSV3/7l9C2VeXF1hy/xc=);lineShape=1;fillColor=#ffe6cc;strokeColor=#d79b00;" parent="1" vertex="1">
          <mxGeometry x="638.2679409783105" y="136.5744553533233" width="18.778155219557707" height="25.443706454429826" as="geometry" />
        </mxCell>
        <mxCell id="qmGR9ZUq5TNTbS_9b9wO-27" value="" style="shape=stencil(fZbLUsMwDEW/JluNbdmWvObxH52h0AylZUp5/T0yIW5lEu0SJyeypHsVD3jzttu8bofg3s6n4/P2c3w47wa8HUIYD7vtaTzL1YB3A948Hk/bp9Px/fAw3b9u6pv16uX4Ub/wNXHMgKFSwX1PK+gh5N+V+wnYj4croCQoUQHRA1tAAcoKSBEwmkD0CsgEWAwgQtEAFchpHeAMpHPgAhzWAUo9UDKwESEjOFaAdw6cWyeS64nCc6UXAWRwRQMIxOtAkFbrCJzAGZ0LHoruHEkEIwdfIHWdc8DWlkRrpMVEZtKBwGkAMwSjEfIYnQLqJ4xW1w3oKtVNGoCk2KlPyhCNstYihj5CMSLUNnVbklYaSVchaGlUsZABcG/qKkcjhys1t1ajHaIZpompmWo562bJJtdsAhfTN0O0wbDcOYKoc7iMnmWPyuDKPUBGmepo7Dwq4xMNuYrWNFAHtLElATp9Xyb6muWwiyBqMbbkA7C2HGUoxhQQQ6JWBs8rywF6YSQ2DfdPeWJZy28O6N/ISFbTwOv9S0be+sHNI675P5tDzxPkbtKb9akDq3Pz/IFlSRAkbWY3LyznyxBT9775pyrgdUHDPJ/+3peLy3njcdzvp+PK9fP+fCJL09kG734A);lineShape=1;fillColor=#ffe6cc;strokeColor=#d79b00;" parent="1" vertex="1">
          <mxGeometry x="650.2336311741846" y="169.10208500554506" width="2.253345284517439" height="2.252056452694368" as="geometry" />
        </mxCell>
      </root>
    </mxGraphModel>
  </diagram>
</mxfile>
